<mxfile host="Electron" agent="Mozilla/5.0 (Macintosh; Intel Mac OS X 10_15_7) AppleWebKit/537.36 (KHTML, like Gecko) draw.io/26.2.2 Chrome/134.0.6998.178 Electron/35.1.2 Safari/537.36" version="26.2.2">
  <diagram name="Page-1" id="5chLYh_ZuJ9QAYPkCnjX">
    <mxGraphModel dx="3276" dy="1102" grid="1" gridSize="10" guides="1" tooltips="1" connect="1" arrows="1" fold="1" page="1" pageScale="1" pageWidth="850" pageHeight="1100" math="0" shadow="0">
      <root>
        <mxCell id="0" />
        <mxCell id="1" parent="0" />
        <mxCell id="PCT_kWJATfue-ovd6opD-19" value="" style="edgeStyle=orthogonalEdgeStyle;rounded=0;orthogonalLoop=1;jettySize=auto;html=1;exitX=0.5;exitY=1;exitDx=0;exitDy=0;" parent="1" source="-Ul1-T47z0vN7UKcoJ8z-1" target="PCT_kWJATfue-ovd6opD-18" edge="1">
          <mxGeometry relative="1" as="geometry">
            <mxPoint x="635" y="680" as="sourcePoint" />
          </mxGeometry>
        </mxCell>
        <mxCell id="PCT_kWJATfue-ovd6opD-31" value="" style="edgeStyle=orthogonalEdgeStyle;rounded=0;orthogonalLoop=1;jettySize=auto;html=1;" parent="1" source="PCT_kWJATfue-ovd6opD-18" target="PCT_kWJATfue-ovd6opD-25" edge="1">
          <mxGeometry relative="1" as="geometry" />
        </mxCell>
        <mxCell id="PCT_kWJATfue-ovd6opD-18" value="played category = []&amp;nbsp;&lt;div&gt;section_score = 0&lt;/div&gt;&lt;div&gt;score = 0&lt;/div&gt;" style="rounded=0;whiteSpace=wrap;html=1;fontStyle=1" parent="1" vertex="1">
          <mxGeometry x="560.32" y="807.5" width="152.51" height="80" as="geometry" />
        </mxCell>
        <mxCell id="PCT_kWJATfue-ovd6opD-25" value="Welcome" style="shape=process;whiteSpace=wrap;html=1;backgroundOutline=1;rounded=0;fontStyle=1;" parent="1" vertex="1">
          <mxGeometry x="566.87" y="912.5" width="136.26" height="70" as="geometry" />
        </mxCell>
        <mxCell id="PCT_kWJATfue-ovd6opD-37" value="" style="edgeStyle=orthogonalEdgeStyle;rounded=0;orthogonalLoop=1;jettySize=auto;html=1;exitX=0.5;exitY=1;exitDx=0;exitDy=0;" parent="1" source="PCT_kWJATfue-ovd6opD-25" target="PCT_kWJATfue-ovd6opD-36" edge="1">
          <mxGeometry relative="1" as="geometry">
            <mxPoint x="635" y="990" as="sourcePoint" />
          </mxGeometry>
        </mxCell>
        <mxCell id="aNneyLx6Flbh0N_--Nxo-4" value="" style="edgeStyle=orthogonalEdgeStyle;rounded=0;orthogonalLoop=1;jettySize=auto;html=1;entryX=1;entryY=0.5;entryDx=0;entryDy=0;" parent="1" source="PCT_kWJATfue-ovd6opD-36" target="aNneyLx6Flbh0N_--Nxo-6" edge="1">
          <mxGeometry relative="1" as="geometry">
            <mxPoint x="350" y="1195" as="targetPoint" />
          </mxGeometry>
        </mxCell>
        <mxCell id="aNneyLx6Flbh0N_--Nxo-11" value="False" style="edgeLabel;html=1;align=center;verticalAlign=middle;resizable=0;points=[];" parent="aNneyLx6Flbh0N_--Nxo-4" vertex="1" connectable="0">
          <mxGeometry x="-0.2159" y="-3" relative="1" as="geometry">
            <mxPoint x="1" as="offset" />
          </mxGeometry>
        </mxCell>
        <mxCell id="VAZ3mgGGYhYbm_yD0US4-8" value="" style="edgeStyle=orthogonalEdgeStyle;rounded=0;orthogonalLoop=1;jettySize=auto;html=1;" parent="1" source="PCT_kWJATfue-ovd6opD-36" edge="1">
          <mxGeometry relative="1" as="geometry">
            <mxPoint x="635" y="1430" as="targetPoint" />
          </mxGeometry>
        </mxCell>
        <mxCell id="VAZ3mgGGYhYbm_yD0US4-9" value="True" style="edgeLabel;html=1;align=center;verticalAlign=middle;resizable=0;points=[];" parent="VAZ3mgGGYhYbm_yD0US4-8" vertex="1" connectable="0">
          <mxGeometry x="0.0025" y="1" relative="1" as="geometry">
            <mxPoint as="offset" />
          </mxGeometry>
        </mxCell>
        <mxCell id="PCT_kWJATfue-ovd6opD-36" value="Are they any unplayed categories?&lt;div&gt;(length of played_categories = 3)&lt;/div&gt;" style="rhombus;whiteSpace=wrap;html=1;rounded=0;fontStyle=1;" parent="1" vertex="1">
          <mxGeometry x="510" y="1080" width="250" height="230" as="geometry" />
        </mxCell>
        <mxCell id="aNneyLx6Flbh0N_--Nxo-2" value="&lt;font style=&quot;font-size: 15px;&quot;&gt;&lt;b&gt;START&lt;/b&gt;&lt;/font&gt;" style="rounded=1;whiteSpace=wrap;html=1;" parent="1" vertex="1">
          <mxGeometry x="577.5" y="610" width="115" height="60" as="geometry" />
        </mxCell>
        <mxCell id="aNneyLx6Flbh0N_--Nxo-10" value="" style="edgeStyle=orthogonalEdgeStyle;rounded=0;orthogonalLoop=1;jettySize=auto;html=1;" parent="1" source="aNneyLx6Flbh0N_--Nxo-6" target="aNneyLx6Flbh0N_--Nxo-9" edge="1">
          <mxGeometry relative="1" as="geometry" />
        </mxCell>
        <mxCell id="aNneyLx6Flbh0N_--Nxo-6" value="Update leaderboard&amp;nbsp;&lt;div&gt;(add name and score)&lt;/div&gt;" style="shape=process;whiteSpace=wrap;html=1;backgroundOutline=1;rounded=0;fontStyle=1;" parent="1" vertex="1">
          <mxGeometry x="240" y="1147.5" width="160" height="95" as="geometry" />
        </mxCell>
        <mxCell id="aNneyLx6Flbh0N_--Nxo-13" value="" style="edgeStyle=orthogonalEdgeStyle;rounded=0;orthogonalLoop=1;jettySize=auto;html=1;entryX=1;entryY=0.5;entryDx=0;entryDy=0;" parent="1" source="aNneyLx6Flbh0N_--Nxo-9" target="VAZ3mgGGYhYbm_yD0US4-4" edge="1">
          <mxGeometry relative="1" as="geometry">
            <mxPoint x="-190" y="1195.0000000000002" as="targetPoint" />
          </mxGeometry>
        </mxCell>
        <mxCell id="aNneyLx6Flbh0N_--Nxo-14" value="True" style="edgeLabel;html=1;align=center;verticalAlign=middle;resizable=0;points=[];" parent="aNneyLx6Flbh0N_--Nxo-13" vertex="1" connectable="0">
          <mxGeometry x="-0.1683" y="-2" relative="1" as="geometry">
            <mxPoint as="offset" />
          </mxGeometry>
        </mxCell>
        <mxCell id="aNneyLx6Flbh0N_--Nxo-16" value="" style="edgeStyle=orthogonalEdgeStyle;rounded=0;orthogonalLoop=1;jettySize=auto;html=1;" parent="1" source="aNneyLx6Flbh0N_--Nxo-9" edge="1">
          <mxGeometry relative="1" as="geometry">
            <mxPoint x="20" y="980" as="targetPoint" />
          </mxGeometry>
        </mxCell>
        <mxCell id="aNneyLx6Flbh0N_--Nxo-17" value="False" style="edgeLabel;html=1;align=center;verticalAlign=middle;resizable=0;points=[];" parent="aNneyLx6Flbh0N_--Nxo-16" vertex="1" connectable="0">
          <mxGeometry x="-0.2555" y="-4" relative="1" as="geometry">
            <mxPoint as="offset" />
          </mxGeometry>
        </mxCell>
        <mxCell id="aNneyLx6Flbh0N_--Nxo-9" value="User score &amp;gt; lowest leaderboard score" style="rhombus;whiteSpace=wrap;html=1;rounded=0;fontStyle=1;" parent="1" vertex="1">
          <mxGeometry x="-60" y="1112.5" width="160" height="165" as="geometry" />
        </mxCell>
        <mxCell id="aNneyLx6Flbh0N_--Nxo-20" style="edgeStyle=orthogonalEdgeStyle;rounded=0;orthogonalLoop=1;jettySize=auto;html=1;exitX=0.5;exitY=0;exitDx=0;exitDy=0;entryX=0.5;entryY=1;entryDx=0;entryDy=0;" parent="1" source="VAZ3mgGGYhYbm_yD0US4-4" target="VAZ3mgGGYhYbm_yD0US4-6" edge="1">
          <mxGeometry relative="1" as="geometry">
            <mxPoint x="-270" y="1010" as="targetPoint" />
            <mxPoint x="-270" y="1145" as="sourcePoint" />
          </mxGeometry>
        </mxCell>
        <mxCell id="aNneyLx6Flbh0N_--Nxo-19" value="" style="edgeStyle=orthogonalEdgeStyle;rounded=0;orthogonalLoop=1;jettySize=auto;html=1;entryX=1;entryY=0.5;entryDx=0;entryDy=0;" parent="1" target="VAZ3mgGGYhYbm_yD0US4-6" edge="1">
          <mxGeometry relative="1" as="geometry">
            <mxPoint x="-65" y="935" as="sourcePoint" />
            <mxPoint x="-150" y="935" as="targetPoint" />
          </mxGeometry>
        </mxCell>
        <mxCell id="aNneyLx6Flbh0N_--Nxo-22" value="&lt;font style=&quot;font-size: 15px;&quot;&gt;&lt;b&gt;END&lt;/b&gt;&lt;/font&gt;" style="rounded=1;whiteSpace=wrap;html=1;" parent="1" vertex="1">
          <mxGeometry x="-960" y="890" width="160" height="90" as="geometry" />
        </mxCell>
        <mxCell id="VAZ3mgGGYhYbm_yD0US4-4" value="remove lowest score in leaderboard" style="rounded=0;whiteSpace=wrap;html=1;" parent="1" vertex="1">
          <mxGeometry x="-357.5" y="1147.5" width="175" height="95" as="geometry" />
        </mxCell>
        <mxCell id="VAZ3mgGGYhYbm_yD0US4-5" value="remove user score from leaderboard" style="rounded=0;whiteSpace=wrap;html=1;" parent="1" vertex="1">
          <mxGeometry x="-67.5" y="885" width="175" height="95" as="geometry" />
        </mxCell>
        <mxCell id="VAZ3mgGGYhYbm_yD0US4-116" value="" style="edgeStyle=orthogonalEdgeStyle;rounded=0;orthogonalLoop=1;jettySize=auto;html=1;" parent="1" source="VAZ3mgGGYhYbm_yD0US4-6" target="VAZ3mgGGYhYbm_yD0US4-115" edge="1">
          <mxGeometry relative="1" as="geometry" />
        </mxCell>
        <mxCell id="VAZ3mgGGYhYbm_yD0US4-6" value="display leaderboard" style="rounded=0;whiteSpace=wrap;html=1;" parent="1" vertex="1">
          <mxGeometry x="-357.5" y="887.5" width="175" height="95" as="geometry" />
        </mxCell>
        <mxCell id="VAZ3mgGGYhYbm_yD0US4-12" value="" style="edgeStyle=orthogonalEdgeStyle;rounded=0;orthogonalLoop=1;jettySize=auto;html=1;" parent="1" target="VAZ3mgGGYhYbm_yD0US4-11" edge="1">
          <mxGeometry relative="1" as="geometry">
            <mxPoint x="635.0000000000005" y="1520" as="sourcePoint" />
          </mxGeometry>
        </mxCell>
        <mxCell id="VAZ3mgGGYhYbm_yD0US4-14" value="" style="edgeStyle=orthogonalEdgeStyle;rounded=0;orthogonalLoop=1;jettySize=auto;html=1;" parent="1" source="VAZ3mgGGYhYbm_yD0US4-11" target="VAZ3mgGGYhYbm_yD0US4-13" edge="1">
          <mxGeometry relative="1" as="geometry" />
        </mxCell>
        <mxCell id="VAZ3mgGGYhYbm_yD0US4-11" value="Get category choice" style="shape=parallelogram;perimeter=parallelogramPerimeter;whiteSpace=wrap;html=1;fixedSize=1;rounded=0;fontStyle=1;" parent="1" vertex="1">
          <mxGeometry x="546.57" y="1620" width="176.87" height="90" as="geometry" />
        </mxCell>
        <mxCell id="VAZ3mgGGYhYbm_yD0US4-15" style="edgeStyle=orthogonalEdgeStyle;rounded=0;orthogonalLoop=1;jettySize=auto;html=1;exitX=1;exitY=0.5;exitDx=0;exitDy=0;" parent="1" source="VAZ3mgGGYhYbm_yD0US4-13" edge="1">
          <mxGeometry relative="1" as="geometry">
            <mxPoint x="640" y="1560" as="targetPoint" />
            <mxPoint x="690.0000000000001" y="1865" as="sourcePoint" />
            <Array as="points">
              <mxPoint x="870" y="1860" />
              <mxPoint x="870" y="1560" />
            </Array>
          </mxGeometry>
        </mxCell>
        <mxCell id="VAZ3mgGGYhYbm_yD0US4-65" value="False" style="edgeLabel;html=1;align=center;verticalAlign=middle;resizable=0;points=[];" parent="VAZ3mgGGYhYbm_yD0US4-15" vertex="1" connectable="0">
          <mxGeometry x="-0.0684" y="1" relative="1" as="geometry">
            <mxPoint as="offset" />
          </mxGeometry>
        </mxCell>
        <mxCell id="VAZ3mgGGYhYbm_yD0US4-21" value="" style="edgeStyle=orthogonalEdgeStyle;rounded=0;orthogonalLoop=1;jettySize=auto;html=1;" parent="1" source="VAZ3mgGGYhYbm_yD0US4-13" target="VAZ3mgGGYhYbm_yD0US4-20" edge="1">
          <mxGeometry relative="1" as="geometry" />
        </mxCell>
        <mxCell id="VAZ3mgGGYhYbm_yD0US4-22" value="True" style="edgeLabel;html=1;align=center;verticalAlign=middle;resizable=0;points=[];" parent="VAZ3mgGGYhYbm_yD0US4-21" vertex="1" connectable="0">
          <mxGeometry x="0.0563" y="4" relative="1" as="geometry">
            <mxPoint as="offset" />
          </mxGeometry>
        </mxCell>
        <mxCell id="VAZ3mgGGYhYbm_yD0US4-13" value="is category choice valid?" style="rhombus;whiteSpace=wrap;html=1;rounded=0;fontStyle=1;" parent="1" vertex="1">
          <mxGeometry x="562.97" y="1790" width="144.06" height="140" as="geometry" />
        </mxCell>
        <mxCell id="VAZ3mgGGYhYbm_yD0US4-24" value="" style="edgeStyle=orthogonalEdgeStyle;rounded=0;orthogonalLoop=1;jettySize=auto;html=1;endArrow=none;startFill=0;" parent="1" source="VAZ3mgGGYhYbm_yD0US4-20" edge="1">
          <mxGeometry relative="1" as="geometry">
            <mxPoint x="870" y="1560" as="targetPoint" />
            <Array as="points">
              <mxPoint x="990" y="2135" />
              <mxPoint x="990" y="1560" />
            </Array>
          </mxGeometry>
        </mxCell>
        <mxCell id="VAZ3mgGGYhYbm_yD0US4-64" value="False" style="edgeLabel;html=1;align=center;verticalAlign=middle;resizable=0;points=[];" parent="VAZ3mgGGYhYbm_yD0US4-24" vertex="1" connectable="0">
          <mxGeometry x="0.1761" y="-1" relative="1" as="geometry">
            <mxPoint as="offset" />
          </mxGeometry>
        </mxCell>
        <mxCell id="VAZ3mgGGYhYbm_yD0US4-28" value="" style="edgeStyle=orthogonalEdgeStyle;rounded=0;orthogonalLoop=1;jettySize=auto;html=1;" parent="1" source="VAZ3mgGGYhYbm_yD0US4-20" edge="1">
          <mxGeometry relative="1" as="geometry">
            <mxPoint x="632" y="2290" as="targetPoint" />
          </mxGeometry>
        </mxCell>
        <mxCell id="VAZ3mgGGYhYbm_yD0US4-29" value="True" style="edgeLabel;html=1;align=center;verticalAlign=middle;resizable=0;points=[];" parent="VAZ3mgGGYhYbm_yD0US4-28" vertex="1" connectable="0">
          <mxGeometry x="-0.1788" relative="1" as="geometry">
            <mxPoint as="offset" />
          </mxGeometry>
        </mxCell>
        <mxCell id="VAZ3mgGGYhYbm_yD0US4-20" value="does category choice appear in unplayed categories?&amp;nbsp;" style="rhombus;whiteSpace=wrap;html=1;rounded=0;fontStyle=1;" parent="1" vertex="1">
          <mxGeometry x="558.5899999999999" y="2060" width="146.88" height="150" as="geometry" />
        </mxCell>
        <mxCell id="VAZ3mgGGYhYbm_yD0US4-50" value="" style="edgeStyle=orthogonalEdgeStyle;rounded=0;orthogonalLoop=1;jettySize=auto;html=1;" parent="1" source="VAZ3mgGGYhYbm_yD0US4-46" target="VAZ3mgGGYhYbm_yD0US4-49" edge="1">
          <mxGeometry relative="1" as="geometry" />
        </mxCell>
        <mxCell id="VAZ3mgGGYhYbm_yD0US4-46" value="Get user answer" style="shape=parallelogram;perimeter=parallelogramPerimeter;whiteSpace=wrap;html=1;fixedSize=1;rounded=0;fontStyle=1;" parent="1" vertex="1">
          <mxGeometry x="557.2" y="2960" width="136.88" height="80" as="geometry" />
        </mxCell>
        <mxCell id="VAZ3mgGGYhYbm_yD0US4-54" value="" style="edgeStyle=orthogonalEdgeStyle;rounded=0;orthogonalLoop=1;jettySize=auto;html=1;" parent="1" source="VAZ3mgGGYhYbm_yD0US4-49" target="VAZ3mgGGYhYbm_yD0US4-53" edge="1">
          <mxGeometry relative="1" as="geometry" />
        </mxCell>
        <mxCell id="VAZ3mgGGYhYbm_yD0US4-56" value="False" style="edgeLabel;html=1;align=center;verticalAlign=middle;resizable=0;points=[];" parent="VAZ3mgGGYhYbm_yD0US4-54" vertex="1" connectable="0">
          <mxGeometry x="-0.0722" relative="1" as="geometry">
            <mxPoint as="offset" />
          </mxGeometry>
        </mxCell>
        <mxCell id="VAZ3mgGGYhYbm_yD0US4-58" value="" style="edgeStyle=orthogonalEdgeStyle;rounded=0;orthogonalLoop=1;jettySize=auto;html=1;" parent="1" source="VAZ3mgGGYhYbm_yD0US4-49" target="VAZ3mgGGYhYbm_yD0US4-57" edge="1">
          <mxGeometry relative="1" as="geometry" />
        </mxCell>
        <mxCell id="VAZ3mgGGYhYbm_yD0US4-59" value="True" style="edgeLabel;html=1;align=center;verticalAlign=middle;resizable=0;points=[];" parent="VAZ3mgGGYhYbm_yD0US4-58" vertex="1" connectable="0">
          <mxGeometry x="0.094" y="-2" relative="1" as="geometry">
            <mxPoint as="offset" />
          </mxGeometry>
        </mxCell>
        <mxCell id="VAZ3mgGGYhYbm_yD0US4-49" value="user answer != hint" style="rhombus;whiteSpace=wrap;html=1;rounded=0;fontStyle=1;" parent="1" vertex="1">
          <mxGeometry x="562.9699999999999" y="3122.5" width="124.54" height="130" as="geometry" />
        </mxCell>
        <mxCell id="-Ul1-T47z0vN7UKcoJ8z-7" style="edgeStyle=orthogonalEdgeStyle;rounded=0;orthogonalLoop=1;jettySize=auto;html=1;endArrow=none;startFill=0;" edge="1" parent="1" source="VAZ3mgGGYhYbm_yD0US4-53">
          <mxGeometry relative="1" as="geometry">
            <mxPoint x="855" y="2930" as="targetPoint" />
          </mxGeometry>
        </mxCell>
        <mxCell id="VAZ3mgGGYhYbm_yD0US4-53" value="Display hint" style="whiteSpace=wrap;html=1;rounded=0;fontStyle=1;" parent="1" vertex="1">
          <mxGeometry x="790" y="3155" width="130" height="65" as="geometry" />
        </mxCell>
        <mxCell id="VAZ3mgGGYhYbm_yD0US4-62" style="edgeStyle=orthogonalEdgeStyle;rounded=0;orthogonalLoop=1;jettySize=auto;html=1;" parent="1" source="VAZ3mgGGYhYbm_yD0US4-57" edge="1">
          <mxGeometry relative="1" as="geometry">
            <mxPoint x="638" y="2930" as="targetPoint" />
            <Array as="points">
              <mxPoint x="960" y="3415" />
              <mxPoint x="960" y="2930" />
            </Array>
          </mxGeometry>
        </mxCell>
        <mxCell id="VAZ3mgGGYhYbm_yD0US4-67" value="False" style="edgeLabel;html=1;align=center;verticalAlign=middle;resizable=0;points=[];" parent="VAZ3mgGGYhYbm_yD0US4-62" vertex="1" connectable="0">
          <mxGeometry x="-0.0991" y="-1" relative="1" as="geometry">
            <mxPoint as="offset" />
          </mxGeometry>
        </mxCell>
        <mxCell id="VAZ3mgGGYhYbm_yD0US4-69" value="" style="edgeStyle=orthogonalEdgeStyle;rounded=0;orthogonalLoop=1;jettySize=auto;html=1;" parent="1" source="VAZ3mgGGYhYbm_yD0US4-57" target="VAZ3mgGGYhYbm_yD0US4-68" edge="1">
          <mxGeometry relative="1" as="geometry" />
        </mxCell>
        <mxCell id="VAZ3mgGGYhYbm_yD0US4-57" value="is it a valid input (A,B,C,D,E)" style="rhombus;whiteSpace=wrap;html=1;rounded=0;fontStyle=1;" parent="1" vertex="1">
          <mxGeometry x="564.93" y="3350" width="124.54" height="130" as="geometry" />
        </mxCell>
        <mxCell id="VAZ3mgGGYhYbm_yD0US4-61" value="" style="edgeStyle=orthogonalEdgeStyle;rounded=0;orthogonalLoop=1;jettySize=auto;html=1;" parent="1" target="VAZ3mgGGYhYbm_yD0US4-46" edge="1">
          <mxGeometry relative="1" as="geometry">
            <mxPoint x="625.2105263157896" y="2890" as="sourcePoint" />
          </mxGeometry>
        </mxCell>
        <mxCell id="VAZ3mgGGYhYbm_yD0US4-79" value="" style="edgeStyle=orthogonalEdgeStyle;rounded=0;orthogonalLoop=1;jettySize=auto;html=1;" parent="1" source="VAZ3mgGGYhYbm_yD0US4-68" target="VAZ3mgGGYhYbm_yD0US4-78" edge="1">
          <mxGeometry relative="1" as="geometry" />
        </mxCell>
        <mxCell id="VAZ3mgGGYhYbm_yD0US4-89" value="False" style="edgeLabel;html=1;align=center;verticalAlign=middle;resizable=0;points=[];" parent="VAZ3mgGGYhYbm_yD0US4-79" vertex="1" connectable="0">
          <mxGeometry x="-0.0023" y="-2" relative="1" as="geometry">
            <mxPoint as="offset" />
          </mxGeometry>
        </mxCell>
        <mxCell id="-Ul1-T47z0vN7UKcoJ8z-14" value="True" style="edgeStyle=orthogonalEdgeStyle;rounded=0;orthogonalLoop=1;jettySize=auto;html=1;" edge="1" parent="1" source="VAZ3mgGGYhYbm_yD0US4-68" target="-Ul1-T47z0vN7UKcoJ8z-13">
          <mxGeometry relative="1" as="geometry" />
        </mxCell>
        <mxCell id="VAZ3mgGGYhYbm_yD0US4-68" value="User answer =&amp;nbsp;&lt;div&gt;&quot;Answer&quot;&lt;/div&gt;" style="rhombus;whiteSpace=wrap;html=1;rounded=0;fontStyle=1;" parent="1" vertex="1">
          <mxGeometry x="564.9300000000001" y="3595" width="124.54" height="130" as="geometry" />
        </mxCell>
        <mxCell id="VAZ3mgGGYhYbm_yD0US4-81" value="" style="edgeStyle=orthogonalEdgeStyle;rounded=0;orthogonalLoop=1;jettySize=auto;html=1;" parent="1" source="VAZ3mgGGYhYbm_yD0US4-78" target="VAZ3mgGGYhYbm_yD0US4-80" edge="1">
          <mxGeometry relative="1" as="geometry" />
        </mxCell>
        <mxCell id="VAZ3mgGGYhYbm_yD0US4-78" value="incorrect_attempt += 1" style="whiteSpace=wrap;html=1;rounded=0;fontStyle=1;" parent="1" vertex="1">
          <mxGeometry x="830" y="3618.75" width="135" height="82.5" as="geometry" />
        </mxCell>
        <mxCell id="VAZ3mgGGYhYbm_yD0US4-86" value="" style="edgeStyle=orthogonalEdgeStyle;rounded=0;orthogonalLoop=1;jettySize=auto;html=1;endArrow=none;startFill=0;" parent="1" source="VAZ3mgGGYhYbm_yD0US4-80" edge="1">
          <mxGeometry relative="1" as="geometry">
            <mxPoint x="960" y="2930" as="targetPoint" />
            <Array as="points">
              <mxPoint x="1141" y="2930" />
            </Array>
          </mxGeometry>
        </mxCell>
        <mxCell id="-Ul1-T47z0vN7UKcoJ8z-9" value="False" style="edgeLabel;html=1;align=center;verticalAlign=middle;resizable=0;points=[];" vertex="1" connectable="0" parent="VAZ3mgGGYhYbm_yD0US4-86">
          <mxGeometry x="-0.7795" y="2" relative="1" as="geometry">
            <mxPoint as="offset" />
          </mxGeometry>
        </mxCell>
        <mxCell id="-Ul1-T47z0vN7UKcoJ8z-8" style="edgeStyle=orthogonalEdgeStyle;rounded=0;orthogonalLoop=1;jettySize=auto;html=1;entryX=0.5;entryY=1;entryDx=0;entryDy=0;" edge="1" parent="1" source="VAZ3mgGGYhYbm_yD0US4-80" target="VAZ3mgGGYhYbm_yD0US4-94">
          <mxGeometry relative="1" as="geometry">
            <mxPoint x="1390" y="2620" as="targetPoint" />
          </mxGeometry>
        </mxCell>
        <mxCell id="-Ul1-T47z0vN7UKcoJ8z-10" value="True" style="edgeLabel;html=1;align=center;verticalAlign=middle;resizable=0;points=[];" vertex="1" connectable="0" parent="-Ul1-T47z0vN7UKcoJ8z-8">
          <mxGeometry x="-0.8759" y="-2" relative="1" as="geometry">
            <mxPoint x="-1" as="offset" />
          </mxGeometry>
        </mxCell>
        <mxCell id="VAZ3mgGGYhYbm_yD0US4-80" value="Incorrect attempt = 3" style="rhombus;whiteSpace=wrap;html=1;rounded=0;fontStyle=1;" parent="1" vertex="1">
          <mxGeometry x="1072.5" y="3590" width="137.5" height="140" as="geometry" />
        </mxCell>
        <mxCell id="VAZ3mgGGYhYbm_yD0US4-101" style="edgeStyle=orthogonalEdgeStyle;rounded=0;orthogonalLoop=1;jettySize=auto;html=1;" parent="1" source="VAZ3mgGGYhYbm_yD0US4-94" edge="1">
          <mxGeometry relative="1" as="geometry">
            <mxPoint x="630" y="2407.5049999999997" as="targetPoint" />
          </mxGeometry>
        </mxCell>
        <mxCell id="VAZ3mgGGYhYbm_yD0US4-102" value="True" style="edgeLabel;html=1;align=center;verticalAlign=middle;resizable=0;points=[];" parent="VAZ3mgGGYhYbm_yD0US4-101" vertex="1" connectable="0">
          <mxGeometry x="-0.1179" y="-1" relative="1" as="geometry">
            <mxPoint as="offset" />
          </mxGeometry>
        </mxCell>
        <mxCell id="VAZ3mgGGYhYbm_yD0US4-107" style="edgeStyle=orthogonalEdgeStyle;rounded=0;orthogonalLoop=1;jettySize=auto;html=1;entryX=0.5;entryY=1;entryDx=0;entryDy=0;" parent="1" source="VAZ3mgGGYhYbm_yD0US4-94" target="VAZ3mgGGYhYbm_yD0US4-108" edge="1">
          <mxGeometry relative="1" as="geometry">
            <mxPoint x="1396" y="1960" as="targetPoint" />
          </mxGeometry>
        </mxCell>
        <mxCell id="VAZ3mgGGYhYbm_yD0US4-109" value="False" style="edgeLabel;html=1;align=center;verticalAlign=middle;resizable=0;points=[];" parent="VAZ3mgGGYhYbm_yD0US4-107" vertex="1" connectable="0">
          <mxGeometry x="0.0821" y="-1" relative="1" as="geometry">
            <mxPoint y="-1" as="offset" />
          </mxGeometry>
        </mxCell>
        <mxCell id="VAZ3mgGGYhYbm_yD0US4-94" value="Are there still questions remaining in chosen topic?" style="rhombus;whiteSpace=wrap;html=1;rounded=0;fontStyle=1;" parent="1" vertex="1">
          <mxGeometry x="1300" y="2310" width="189.84" height="195.01" as="geometry" />
        </mxCell>
        <mxCell id="VAZ3mgGGYhYbm_yD0US4-100" style="edgeStyle=orthogonalEdgeStyle;rounded=0;orthogonalLoop=1;jettySize=auto;html=1;entryX=0.5;entryY=0;entryDx=0;entryDy=0;" parent="1" source="VAZ3mgGGYhYbm_yD0US4-99" target="-Ul1-T47z0vN7UKcoJ8z-4" edge="1">
          <mxGeometry relative="1" as="geometry">
            <mxPoint x="624.895" y="2630" as="targetPoint" />
          </mxGeometry>
        </mxCell>
        <mxCell id="VAZ3mgGGYhYbm_yD0US4-99" value="add category choice to played category list" style="whiteSpace=wrap;html=1;rounded=0;fontStyle=1;" parent="1" vertex="1">
          <mxGeometry x="550" y="2280" width="148.76" height="85.01" as="geometry" />
        </mxCell>
        <mxCell id="VAZ3mgGGYhYbm_yD0US4-110" style="edgeStyle=orthogonalEdgeStyle;rounded=0;orthogonalLoop=1;jettySize=auto;html=1;" parent="1" source="VAZ3mgGGYhYbm_yD0US4-108" edge="1">
          <mxGeometry relative="1" as="geometry">
            <mxPoint x="640" y="1040" as="targetPoint" />
          </mxGeometry>
        </mxCell>
        <mxCell id="VAZ3mgGGYhYbm_yD0US4-111" value="True" style="edgeLabel;html=1;align=center;verticalAlign=middle;resizable=0;points=[];" parent="VAZ3mgGGYhYbm_yD0US4-110" vertex="1" connectable="0">
          <mxGeometry x="-0.0798" relative="1" as="geometry">
            <mxPoint x="1" as="offset" />
          </mxGeometry>
        </mxCell>
        <mxCell id="VAZ3mgGGYhYbm_yD0US4-112" style="edgeStyle=orthogonalEdgeStyle;rounded=0;orthogonalLoop=1;jettySize=auto;html=1;entryX=0.5;entryY=1;entryDx=0;entryDy=0;" parent="1" source="VAZ3mgGGYhYbm_yD0US4-108" target="VAZ3mgGGYhYbm_yD0US4-114" edge="1">
          <mxGeometry relative="1" as="geometry">
            <mxPoint x="1395" y="780" as="targetPoint" />
          </mxGeometry>
        </mxCell>
        <mxCell id="VAZ3mgGGYhYbm_yD0US4-113" value="False" style="edgeLabel;html=1;align=center;verticalAlign=middle;resizable=0;points=[];" parent="VAZ3mgGGYhYbm_yD0US4-112" vertex="1" connectable="0">
          <mxGeometry x="0.1138" relative="1" as="geometry">
            <mxPoint as="offset" />
          </mxGeometry>
        </mxCell>
        <mxCell id="VAZ3mgGGYhYbm_yD0US4-108" value="Does user want to play&amp;nbsp;&lt;div&gt;another section&lt;/div&gt;" style="rhombus;whiteSpace=wrap;html=1;rounded=0;fontStyle=1;" parent="1" vertex="1">
          <mxGeometry x="1300.01" y="940" width="189.84" height="200" as="geometry" />
        </mxCell>
        <mxCell id="VAZ3mgGGYhYbm_yD0US4-114" value="&lt;font style=&quot;font-size: 15px;&quot;&gt;&lt;b&gt;END&lt;/b&gt;&lt;/font&gt;" style="rounded=1;whiteSpace=wrap;html=1;" parent="1" vertex="1">
          <mxGeometry x="1337.4299999999998" y="610" width="115" height="60" as="geometry" />
        </mxCell>
        <mxCell id="VAZ3mgGGYhYbm_yD0US4-117" style="edgeStyle=orthogonalEdgeStyle;rounded=0;orthogonalLoop=1;jettySize=auto;html=1;" parent="1" source="VAZ3mgGGYhYbm_yD0US4-115" edge="1">
          <mxGeometry relative="1" as="geometry">
            <mxPoint x="620" y="700" as="targetPoint" />
            <Array as="points">
              <mxPoint x="-557" y="700" />
            </Array>
          </mxGeometry>
        </mxCell>
        <mxCell id="VAZ3mgGGYhYbm_yD0US4-119" value="True" style="edgeLabel;html=1;align=center;verticalAlign=middle;resizable=0;points=[];" parent="VAZ3mgGGYhYbm_yD0US4-117" vertex="1" connectable="0">
          <mxGeometry x="-0.8846" relative="1" as="geometry">
            <mxPoint y="-1" as="offset" />
          </mxGeometry>
        </mxCell>
        <mxCell id="VAZ3mgGGYhYbm_yD0US4-120" style="edgeStyle=orthogonalEdgeStyle;rounded=0;orthogonalLoop=1;jettySize=auto;html=1;entryX=1;entryY=0.5;entryDx=0;entryDy=0;" parent="1" source="VAZ3mgGGYhYbm_yD0US4-115" target="aNneyLx6Flbh0N_--Nxo-22" edge="1">
          <mxGeometry relative="1" as="geometry" />
        </mxCell>
        <mxCell id="VAZ3mgGGYhYbm_yD0US4-121" value="False" style="edgeLabel;html=1;align=center;verticalAlign=middle;resizable=0;points=[];" parent="VAZ3mgGGYhYbm_yD0US4-120" vertex="1" connectable="0">
          <mxGeometry x="0.0059" y="1" relative="1" as="geometry">
            <mxPoint x="1" as="offset" />
          </mxGeometry>
        </mxCell>
        <mxCell id="VAZ3mgGGYhYbm_yD0US4-115" value="Does user want to replay the quiz" style="rhombus;whiteSpace=wrap;html=1;rounded=0;" parent="1" vertex="1">
          <mxGeometry x="-630" y="868.75" width="145" height="132.5" as="geometry" />
        </mxCell>
        <mxCell id="-Ul1-T47z0vN7UKcoJ8z-2" value="" style="edgeStyle=orthogonalEdgeStyle;rounded=0;orthogonalLoop=1;jettySize=auto;html=1;exitX=0.5;exitY=1;exitDx=0;exitDy=0;" edge="1" parent="1" source="aNneyLx6Flbh0N_--Nxo-2" target="-Ul1-T47z0vN7UKcoJ8z-1">
          <mxGeometry relative="1" as="geometry">
            <mxPoint x="635" y="670" as="sourcePoint" />
            <mxPoint x="635" y="789" as="targetPoint" />
          </mxGeometry>
        </mxCell>
        <mxCell id="-Ul1-T47z0vN7UKcoJ8z-1" value="Get All Questions from dictionary.py" style="shape=process;whiteSpace=wrap;html=1;backgroundOutline=1;rounded=0;fontStyle=1;" vertex="1" parent="1">
          <mxGeometry x="566.88" y="718.75" width="136.26" height="70" as="geometry" />
        </mxCell>
        <mxCell id="-Ul1-T47z0vN7UKcoJ8z-3" value="Display unplayed categories" style="shape=parallelogram;perimeter=parallelogramPerimeter;whiteSpace=wrap;html=1;fixedSize=1;rounded=0;fontStyle=1;" vertex="1" parent="1">
          <mxGeometry x="546.58" y="1430" width="176.87" height="90" as="geometry" />
        </mxCell>
        <mxCell id="-Ul1-T47z0vN7UKcoJ8z-5" style="edgeStyle=orthogonalEdgeStyle;rounded=0;orthogonalLoop=1;jettySize=auto;html=1;entryX=0.5;entryY=0;entryDx=0;entryDy=0;" edge="1" parent="1" source="-Ul1-T47z0vN7UKcoJ8z-4" target="VAZ3mgGGYhYbm_yD0US4-46">
          <mxGeometry relative="1" as="geometry" />
        </mxCell>
        <mxCell id="-Ul1-T47z0vN7UKcoJ8z-4" value="Display question" style="shape=parallelogram;perimeter=parallelogramPerimeter;whiteSpace=wrap;html=1;fixedSize=1;rounded=0;fontStyle=1;" vertex="1" parent="1">
          <mxGeometry x="536.8" y="2650" width="176.87" height="90" as="geometry" />
        </mxCell>
        <mxCell id="-Ul1-T47z0vN7UKcoJ8z-16" style="edgeStyle=orthogonalEdgeStyle;rounded=0;orthogonalLoop=1;jettySize=auto;html=1;endArrow=none;startFill=0;" edge="1" parent="1" source="-Ul1-T47z0vN7UKcoJ8z-13">
          <mxGeometry relative="1" as="geometry">
            <mxPoint x="1390" y="3660" as="targetPoint" />
            <Array as="points">
              <mxPoint x="1400" y="3905" />
              <mxPoint x="1400" y="3660" />
            </Array>
          </mxGeometry>
        </mxCell>
        <mxCell id="-Ul1-T47z0vN7UKcoJ8z-13" value="score += 1" style="whiteSpace=wrap;html=1;rounded=0;fontStyle=1;" vertex="1" parent="1">
          <mxGeometry x="547.2" y="3860" width="160" height="90" as="geometry" />
        </mxCell>
      </root>
    </mxGraphModel>
  </diagram>
</mxfile>
